<?xml version="1.0" standalone="no"?>
<svg viewBox="0 0 200 200" xmlns="http://www.w3.org/2000/svg">
  <path fill="#F9C74F" d="M33.3,-57.3C43.4,-45.4,51.9,-36.5,57.5,-25.8C63.2,-15.1,65.9,-2.6,67.3,12C68.8,26.5,68.9,43.2,59.9,49.6C50.8,56,32.5,52.1,17.4,54.5C2.2,56.8,-9.7,65.3,-20.3,64.3C-30.9,63.4,-40.1,53,-48.9,42.5C-57.7,32,-66.1,21.4,-70.6,8.5C-75.1,-4.4,-75.6,-19.6,-69.8,-31.6C-63.9,-43.7,-51.7,-52.5,-39,-63.2C-26.3,-73.8,-13.2,-86.2,-0.8,-85.1C11.6,-83.9,23.3,-69.1,33.3,-57.3Z" transform="translate(100 100)" />
</svg>
